<?xml version="1.0" encoding="UTF-8" standalone="no"?>
<!-- Created with Inkscape (http://www.inkscape.org/) -->

<svg
   version="1.1"
   id="svg1"
   width="64"
   height="64"
   viewBox="0 0 64 63.999999"
   xmlns:xlink="http://www.w3.org/1999/xlink"
   xmlns="http://www.w3.org/2000/svg"
   xmlns:svg="http://www.w3.org/2000/svg">
  <defs
     id="defs1">
    <pattern
       xlink:href="#Grid"
       id="pattern11"
       patternTransform="matrix(0.02814754,0,0,0.01876502,464.47722,469.71436)"
       x="0"
       y="0"
       preserveAspectRatio="none" />
    <pattern
       patternUnits="userSpaceOnUse"
       width="100"
       height="100"
       id="Grid"
       patternTransform="scale(0.3,0.3)"
       style="fill:#ff2a2a">
      <g
   id="g63950">
        <rect
   style="fill-opacity:0.5;stroke:none;stroke-width:1;stroke-dasharray:none"
   id="rect62492"
   width="50"
   height="100"
   x="50"
   y="0" />

        <rect
   style="fill-opacity:0.5;stroke:none;stroke-width:1;stroke-dasharray:none"
   id="rect63583"
   width="50"
   height="100"
   x="-100"
   y="0"
   transform="rotate(-90)" />

      </g>

    </pattern>
    <linearGradient
       id="swatch8">
      <stop
         style="stop-color:#000000;stop-opacity:1;"
         offset="0"
         id="stop8" />
    </linearGradient>
  </defs>
  <g
     id="g1"
     transform="translate(-480.56908,-485.02415)">
    <path
       style="fill:url(#pattern11);fill-opacity:1;stroke-width:0.0939724;stroke-dasharray:none"
       d="m 497.82073,544.34355 c -0.48585,-0.16577 -0.83042,-0.5694 -1.00626,-1.17873 -0.31568,-1.09386 -1.65643,-6.35012 -1.65643,-6.49383 0,-0.0958 -0.0791,-0.15375 -0.21111,-0.15475 -0.11611,-8.5e-4 -1.72031,0.17592 -3.56488,0.3929 -3.21978,0.37875 -3.36695,0.38823 -3.68328,0.23738 -0.44627,-0.21281 -0.70273,-0.65823 -0.70317,-1.22125 -1.9e-4,-0.24851 0.0475,-0.54406 0.10593,-0.65678 0.0585,-0.11271 0.59893,-0.71159 1.20105,-1.33084 1.71515,-1.76392 3.70109,-4.13174 5.74459,-6.84923 1.82798,-2.43088 4.47181,-6.278 5.27842,-7.6808 0.62062,-1.07934 1.83725,-3.37729 1.83725,-3.47017 0,-0.0351 -0.24277,0.0581 -0.53949,0.20718 -0.8861,0.44513 -3.46019,1.55282 -4.70365,2.0241 -2.5198,0.95501 -4.97216,1.39669 -6.62622,1.19342 -4.1121,-0.50534 -7.08477,-3.52356 -8.19232,-8.31783 -0.44564,-1.92906 -0.53117,-2.85666 -0.53207,-5.77024 -8.5e-4,-2.82741 0.0609,-3.60559 0.43174,-5.44186 0.98365,-4.87011 3.43505,-7.81333 7.1443,-8.57765 4.73178,-0.97501 10.46532,1.1647 16.16086,6.0311 0.51603,0.44092 1.62114,1.47335 2.45578,2.2943 l 1.51753,1.49264 0.40588,-0.39128 c 0.78576,-0.75748 2.36827,-1.32379 3.67456,-1.31496 1.28487,0.009 2.7661,0.49817 3.7213,1.22973 0.23222,0.17785 0.47783,0.35742 0.54581,0.39904 0.0859,0.0526 0.61566,-0.4077 1.73576,-1.50802 1.70028,-1.67027 2.98442,-2.8077 4.26009,-3.77341 3.00251,-2.27296 6.17938,-3.81521 9.12713,-4.43087 0.77275,-0.1614 1.31897,-0.20703 2.53328,-0.21162 1.76944,-0.007 2.74234,0.14551 4.03773,0.63169 2.13346,0.80073 3.89733,2.68361 4.88925,5.21914 1.23666,3.16111 1.65291,7.39914 1.15146,11.72359 -0.6793,5.85821 -3.16885,9.36354 -7.45026,10.49005 -0.73671,0.19385 -1.12159,0.23615 -2.20596,0.24249 -2.70378,0.0158 -5.51431,-0.83522 -9.71831,-2.94262 -0.61359,-0.30759 -1.14055,-0.55924 -1.17104,-0.55924 -0.0305,0 0.22994,0.53832 0.57873,1.19627 2.55484,4.81941 8.26593,12.63553 12.28782,16.81697 1.3046,1.35635 1.35359,1.42965 1.35359,2.02542 0,0.62878 -0.28464,1.06882 -0.80972,1.25182 -0.34877,0.12154 -0.67198,0.0987 -3.77955,-0.26751 -1.86899,-0.22024 -3.41435,-0.38423 -3.43415,-0.36444 -0.0198,0.0198 -0.39867,1.44903 -0.84195,3.17609 -0.99583,3.87977 -1.01164,3.92828 -1.40528,4.30981 -0.25128,0.24355 -0.42114,0.32073 -0.78221,0.35542 -0.70347,0.0676 -1.08268,-0.15721 -1.59123,-0.94335 -0.90189,-1.39419 -3.79411,-7.60364 -5.29666,-11.37167 -1.63493,-4.10003 -4.10168,-11.9801 -5.57426,-17.80701 -0.21045,-0.83274 -0.28202,-1.00109 -0.40348,-0.94907 -0.97758,0.41871 -1.8727,0.46541 -2.77044,0.14455 -0.30725,-0.10981 -0.58475,-0.16816 -0.61667,-0.12966 -0.0319,0.0385 -0.24046,0.76664 -0.46341,1.61811 -1.7219,6.57601 -3.67894,12.74555 -5.49112,17.31073 -1.43462,3.61404 -4.11732,9.43943 -5.07695,11.02445 -0.62705,1.03569 -1.13368,1.32438 -1.87831,1.0703 z m -5.75892,-33.49098 c 1.9849,-0.32086 4.64527,-1.10369 7.64674,-2.25011 2.51725,-0.96147 4.21379,-1.64057 4.29076,-1.71754 0.1625,-0.16249 -0.35636,-0.59599 -1.82854,-1.52773 -5.5524,-3.51409 -9.42275,-5.37464 -11.44754,-5.50305 -1.15225,-0.0731 -1.85471,0.29923 -2.12275,1.12506 -0.18422,0.56757 -0.29013,1.98247 -0.29091,3.88618 -8.4e-4,2.01313 0.1081,3.43432 0.34,4.43618 0.36432,1.57399 1.12661,1.92048 3.41224,1.55101 z m 43.18918,0.0399 c 0.11271,-0.0577 0.36246,-0.25548 0.55498,-0.4395 0.66011,-0.63094 0.81862,-1.56839 0.82014,-4.85052 0.002,-3.46567 -0.18147,-4.71139 -0.79,-5.37541 -0.29952,-0.32683 -0.34809,-0.34503 -1.01001,-0.37845 -0.85904,-0.0434 -1.77065,0.18489 -3.49848,0.87605 -2.00824,0.80332 -3.97141,1.85153 -7.69366,4.10793 -2.30295,1.39603 -2.55996,1.58621 -2.60091,1.92457 -0.0244,0.20197 0.14955,0.28243 2.60091,1.20275 4.48609,1.68424 7.12456,2.50451 9.28869,2.88774 0.92384,0.1636 2.05386,0.18536 2.32834,0.0448 z"
       id="path1" />
  </g>
</svg>
